<?xml version="1.0" encoding="UTF-8" standalone="no"?>
<!DOCTYPE svg PUBLIC "-//W3C//DTD SVG 1.1//EN" "http://www.w3.org/Graphics/SVG/1.1/DTD/svg11.dtd"><svg width="100%"
    height="100%" viewBox="0 0 1920 1080" version="1.1" xmlns="http://www.w3.org/2000/svg"
    xmlns:xlink="http://www.w3.org/1999/xlink" xml:space="preserve"
    style="fill-rule:evenodd;clip-rule:evenodd;stroke-linecap:round;stroke-linejoin:round;stroke-miterlimit:1.5;">
    <style>
        @import url('https://fonts.googleapis.com/css2?family=Barlow:wght@400;600');
        .text-light {
            font-family: 'Barlow-Regular', 'Barlow', sans-serif;
            font-size: 20px;
        }

        .text-bold {
            font-family: 'Barlow-SemiBold', 'Barlow', sans-serif;
            font-weight: 600;
            font-size: 24px;
        }

        .lightblue {
            fill: #00a2ff;
            fill-opacity: 0.06;
        }

        .solid {
            stroke: #000;
            stroke-width: 1px;
        }

        .dotted {
            stroke: #000;
            stroke-width: 0.5px;
            stroke-dasharray: 1 3;
        }
    </style>
    <g id="ergonomics">
        <g id="up-down">
            <path
                d="M587.253,802.583c47.107,-56.141 72.929,-127.084 72.929,-200.371c-0,-111.367 -59.414,-214.274 -155.861,-269.958l-116.895,202.469c24.112,13.92 38.965,39.647 38.965,67.489c0,18.322 -6.455,36.058 -18.232,50.093l179.094,150.278Z"
                class="lightblue solid" />
            <path
                d="M655.446,657.342c3.151,-17.871 4.736,-35.983 4.736,-54.13c-0,-36.363 -6.363,-72.445 -18.799,-106.615l-219.692,79.961c3.109,8.543 4.7,17.563 4.7,26.654c0,4.537 -0.396,9.065 -1.184,13.533l230.239,40.597Z"
                class="lightblue dotted" />
            <g transform="matrix(24,0,0,24,701.003,484.295)"></g><text x="665.123px" y="484.295px"
                class="text-bold">20°</text>
            <g transform="matrix(24,0,0,24,537.333,325.016)"></g><text x="501.573px" y="325.016px"
                class="text-bold">60°</text>
            <g transform="matrix(24,0,0,24,580.528,210.98)"></g><text x="467.08px" y="210.98px" class="text-bold">UP /
                DOWN</text>
            <g transform="matrix(20,0,0,20,525.115,382.708)"></g><text x="488.855px" y="382.708px"
                class="text-light">max</text>
            <g transform="matrix(20,0,0,20,596.591,770.946)"></g><text x="560.331px" y="770.946px"
                class="text-light">max</text>
            <g transform="matrix(20,0,0,20,645.323,589.418)"></g><text x="542.783px" y="589.418px"
                class="text-light">comfortable</text>
            <g transform="matrix(24,0,0,24,635.534,824.35)"></g><text x="599.222px" y="824.35px"
                class="text-bold">40°</text>
            <g transform="matrix(24,0,0,24,700.448,671.374)"></g><text x="669.2px" y="671.374px"
                class="text-bold">10°</text>
            <g id="heads-side">
                <g id="head-side-down3" opacity="0.3">
                    <path
                        d="M349.099,638.634c0.083,-3.422 0.228,-8.831 -2.46,-15.291c-2.688,-6.46 -3.416,-8.063 -8.798,-11.25c-5.359,-3.172 -10.176,-6.841 -14.459,-15.761c-0.12,-0.25 -0.238,-0.501 -0.353,-0.752c-4.643,-10.106 -5.964,-27.172 16.078,-37.298c19.998,-9.188 32.281,-2.527 36.99,7.464c2.151,4.564 1.931,6.546 3.595,9.549c1.177,2.122 5.901,5.451 6.99,6.165c3.366,2.207 5.763,4.028 1.62,7.036c-2.322,1.686 -2.144,2.737 -1.739,3.58c0.404,0.842 1.674,0.874 1.674,0.874c0,-0 0.99,1.207 0.166,2.838c1.379,0.49 1.57,2.021 1.57,2.021c-0,0 -1.198,1.371 -0.66,3.201c0.448,1.525 2.507,1.416 2.807,4.817c0.216,2.461 -1.328,4.35 -3.962,4.97c-8.899,2.093 -13.045,2.244 -8.422,16.43c-8.649,1.133 -23.772,17.151 -30.637,11.407Z"
                        style="fill:#fff;stroke:#000;stroke-width:1px;" />
                    <path
                        d="M367.65,582.283c2.631,6.419 4.296,6.131 8.767,5.085c2.06,-0.482 16.618,-5.127 18.094,-5.625c4.213,-1.423 5.873,-2.576 4.534,-7.091c-0.391,-1.32 -3.479,-8.538 -4.456,-10.744c-4.457,-10.07 -5.545,-7.615 -13.44,-3.614c-3.224,1.634 -12.152,6.453 -13.743,7.585c-3.697,2.631 -4.017,3.949 -2.845,7.167c0.189,0.517 2.832,6.609 3.089,7.237Z"
                        style="fill:#3f3f3f;stroke:#000;stroke-width:1px;" />
                    <path
                        d="M369.33,571.935c0,0 -27.313,9.17 -33.916,11.722c-6.735,2.604 -14.555,6.176 -14.328,7.693c0.119,0.798 0.283,2.539 1.15,4.467c1.183,2.632 2.96,5.167 3.84,5.19c-0.061,-1.234 3.36,-3.42 14.51,-7.518c2.531,-0.931 9.02,-3.355 15.145,-5.401c6.571,-2.195 17.448,-5.764 17.448,-5.764l-3.849,-10.389Z"
                        style="fill:#050505;stroke:#000;stroke-width:1px;" />
                </g>
                <g id="head-side-down2" opacity="0.3">
                    <path
                        d="M346.851,637.356c0.602,-3.368 1.567,-8.693 -0.107,-15.487c-1.674,-6.793 -2.151,-8.488 -6.986,-12.456c-4.813,-3.951 -9.016,-8.309 -11.894,-17.776c-0.08,-0.266 -0.159,-0.532 -0.235,-0.798c-3.052,-10.694 -1.763,-27.762 21.563,-34.42c21.162,-6.04 32.29,2.411 35.424,13.001c1.432,4.839 0.914,6.765 2.103,9.985c0.84,2.276 5.002,6.286 5.97,7.157c2.992,2.692 5.084,4.857 0.532,7.2c-2.552,1.314 -2.535,2.38 -2.264,3.274c0.272,0.894 1.523,1.118 1.523,1.118c-0,0 0.795,1.344 -0.268,2.83c1.288,0.694 1.244,2.237 1.244,2.237c0,-0 -1.392,1.173 -1.139,3.063c0.212,1.575 2.263,1.781 2.042,5.188c-0.16,2.466 -1.973,4.098 -4.671,4.31c-9.114,0.716 -13.235,0.234 -10.822,14.959c-8.721,-0.196 -26.103,13.337 -32.015,6.615Z"
                        style="fill:#fff;stroke:#000;stroke-width:1px;" />
                    <path
                        d="M373.754,584.482c1.624,6.744 3.313,6.713 7.891,6.358c2.11,-0.163 17.204,-2.54 18.74,-2.809c4.38,-0.765 6.196,-1.653 5.559,-6.319c-0.186,-1.363 -2.141,-8.967 -2.771,-11.296c-2.874,-10.631 -4.323,-8.37 -12.734,-5.615c-3.435,1.124 -12.992,4.53 -14.736,5.407c-4.054,2.038 -4.571,3.292 -3.902,6.651c0.108,0.54 1.794,6.962 1.953,7.623Z"
                        style="fill:#3f3f3f;stroke:#000;stroke-width:1px;" />
                    <path
                        d="M376.988,574.51c-0,-0 -28.39,4.91 -35.305,6.429c-7.052,1.549 -15.324,3.89 -15.331,5.424c-0.004,0.808 -0.106,2.553 0.457,4.59c0.77,2.781 2.141,5.557 3.007,5.714c0.127,-1.229 3.841,-2.87 15.485,-5.225c2.642,-0.535 9.424,-1.944 15.789,-3.035c6.829,-1.171 18.122,-3.044 18.122,-3.044l-2.224,-10.853Z"
                        style="fill:#050505;stroke:#000;stroke-width:1px;" />
                </g>
                <g id="head-side-down1" opacity="0.3">
                    <path
                        d="M344.956,637.033c1.115,-3.236 2.89,-8.348 2.285,-15.318c-0.606,-6.971 -0.815,-8.719 -4.979,-13.386c-4.146,-4.646 -7.626,-9.601 -9.008,-19.399c-0.038,-0.274 -0.075,-0.549 -0.109,-0.824c-1.365,-11.037 2.544,-27.702 26.617,-30.679c21.841,-2.701 31.531,7.366 32.993,18.314c0.668,5.001 -0.141,6.824 0.536,10.189c0.479,2.379 3.972,6.983 4.794,7.993c2.541,3.122 4.274,5.583 -0.586,7.196c-2.724,0.904 -2.871,1.959 -2.741,2.885c0.13,0.925 1.331,1.34 1.331,1.34c-0,-0 0.578,1.451 -0.701,2.755c1.166,0.884 0.884,2.402 0.884,2.402c-0,-0 -1.557,0.943 -1.598,2.85c-0.035,1.589 1.961,2.109 1.216,5.441c-0.538,2.411 -2.582,3.744 -5.28,3.537c-9.116,-0.699 -13.113,-1.811 -13.002,13.109c-8.586,-1.539 -27.849,9.149 -32.652,1.595Z"
                        style="fill:#fff;stroke:#000;stroke-width:1px;" />
                    <path
                        d="M379.698,588.945c0.564,6.913 2.238,7.143 6.815,7.5c2.11,0.165 17.391,0.146 18.949,0.118c4.446,-0.08 6.377,-0.677 6.468,-5.386c0.026,-1.376 -0.731,-9.19 -0.994,-11.588c-1.198,-10.947 -2.979,-8.937 -11.715,-7.514c-3.567,0.581 -13.535,2.47 -15.394,3.068c-4.32,1.388 -5.024,2.547 -4.882,5.969c0.023,0.549 0.698,7.156 0.753,7.833Z"
                        style="fill:#3f3f3f;stroke:#000;stroke-width:1px;" />
                    <path
                        d="M384.433,579.591c-0,0 -28.808,0.47 -35.874,0.903c-7.208,0.441 -15.742,1.478 -15.985,2.993c-0.128,0.797 -0.499,2.506 -0.257,4.605c0.331,2.867 1.258,5.821 2.089,6.11c0.315,-1.195 4.238,-2.243 16.106,-2.773c2.693,-0.12 9.611,-0.466 16.069,-0.561c6.927,-0.103 18.374,-0.211 18.374,-0.211l-0.522,-11.066Z"
                        style="fill:#050505;stroke:#000;stroke-width:1px;" />
                </g>
                <g id="head-side-down11" opacity="0.3">
                    <path
                        d="M368.2,638.732c-7.569,-4.337 -21.82,-31.62 -24.173,-37.416c-2.343,-5.769 -3.954,-11.606 -1.96,-21.298c0.055,-0.272 0.114,-0.543 0.174,-0.813c2.426,-10.854 11.71,-25.234 35.383,-19.943c21.477,4.801 27.218,17.54 24.914,28.341c-1.053,4.935 -2.428,6.38 -2.922,9.777c-0.349,2.401 1.394,7.911 1.828,9.139c1.343,3.795 2.147,6.695 -2.972,6.58c-2.869,-0.065 -3.363,0.88 -3.552,1.795c-0.188,0.915 0.804,1.71 0.804,1.71c-0,-0 0.056,1.56 -1.587,2.359c0.8,1.224 0.025,2.559 0.025,2.559c-0,-0 -1.784,0.365 -2.464,2.147c-0.566,1.485 1.138,2.646 -0.683,5.533c-1.319,2.09 -3.691,2.658 -6.163,1.556c-8.349,-3.724 -11.74,-6.115 -16.652,7.974Z"
                        style="fill:#fff;stroke:#000;stroke-width:1px;" />
                    <path
                        d="M385.801,595.648c-1.794,6.701 -0.294,7.48 3.897,9.355c1.931,0.865 16.328,5.985 17.805,6.482c4.214,1.42 6.234,1.507 7.903,-2.897c0.487,-1.287 2.401,-8.9 2.961,-11.247c2.551,-10.713 0.199,-9.418 -8.507,-11.016c-3.555,-0.652 -13.578,-2.225 -15.529,-2.287c-4.535,-0.145 -5.589,0.71 -6.605,3.98c-0.163,0.526 -1.749,6.974 -1.925,7.63Z"
                        style="fill:#3f3f3f;stroke:#000;stroke-width:1px;" />
                    <path
                        d="M393.405,588.431c0,0 -27.288,-9.244 -34.088,-11.212c-6.936,-2.008 -15.322,-3.901 -16.061,-2.557c-0.388,0.708 -1.312,2.193 -1.79,4.252c-0.652,2.81 -0.773,5.904 -0.087,6.456c0.698,-1.02 4.745,-0.687 16.1,2.804c2.577,0.793 9.208,2.793 15.322,4.875c6.558,2.232 17.375,5.98 17.375,5.98l3.229,-10.598Z"
                        style="fill:#050505;stroke:#000;stroke-width:1px;" />
                </g>
                <g id="head-side0">
                    <path
                        d="M344.294,636.217c1.503,-3.074 3.893,-7.93 4.148,-14.922c0.254,-6.992 0.262,-8.753 -3.299,-13.895c-3.544,-5.12 -6.39,-10.465 -6.558,-20.358c-0.005,-0.277 -0.008,-0.555 -0.008,-0.831c0,-11.122 5.924,-27.181 30.181,-27.181c22.007,0 30.389,11.18 30.497,22.224c0.049,5.046 -0.979,6.756 -0.719,10.179c0.183,2.419 3.085,7.417 3.777,8.52c2.138,3.41 3.555,6.066 -1.465,7.07c-2.814,0.563 -3.091,1.592 -3.075,2.527c0.015,0.934 1.157,1.493 1.157,1.493c-0,-0 0.396,1.511 -1.034,2.648c1.048,1.021 0.582,2.492 0.582,2.492c0,0 -1.661,0.746 -1.936,2.633c-0.229,1.573 1.688,2.334 0.54,5.549c-0.83,2.327 -3.022,3.399 -5.675,2.862c-8.96,-1.813 -12.79,-3.407 -14.512,11.415c-8.332,-2.581 -28.761,5.661 -32.601,-2.425Z"
                        style="fill:#fff;stroke:#000;stroke-width:1px;" />
                    <path
                        d="M384.676,592.756c-0.29,6.931 1.344,7.365 5.843,8.28c2.073,0.422 17.241,2.279 18.79,2.442c4.422,0.466 6.412,0.111 7.08,-4.551c0.196,-1.362 0.403,-9.21 0.437,-11.622c0.154,-11.012 -1.86,-9.235 -10.705,-8.895c-3.611,0.139 -13.736,0.79 -15.654,1.155c-4.458,0.847 -5.299,1.912 -5.577,5.325c-0.045,0.548 -0.186,7.187 -0.214,7.866Z"
                        style="fill:#3f3f3f;stroke:#000;stroke-width:1px;" />
                    <path
                        d="M390.522,584.054c0,0 -28.647,-3.069 -35.713,-3.507c-7.207,-0.446 -15.804,-0.464 -16.232,1.009c-0.225,0.775 -0.802,2.426 -0.819,4.539c-0.024,2.885 0.533,5.931 1.323,6.32c0.459,-1.147 4.481,-1.705 16.324,-0.775c2.688,0.211 9.596,0.717 16.016,1.415c6.887,0.748 18.261,2.046 18.261,2.046l0.84,-11.047Z"
                        style="fill:#050505;stroke:#000;stroke-width:1px;" />
                </g>
            </g>
        </g>
        <g id="left-right">
            <path
                d="M1168.23,391.65c-42.534,0 -84.618,8.705 -123.661,25.578l95.559,221.119c8.873,-3.835 18.436,-5.813 28.102,-5.813l-0,-240.884Z"
                class="lightblue dotted" />
            <path
                d="M1168.23,391.65c-87.942,0 -171.793,37.147 -230.88,102.282l178.414,161.845c13.427,-14.801 32.481,-23.243 52.466,-23.243l-0,-240.884Z"
                class="lightblue solid" />
            <g transform="matrix(24,0,0,24,940.836,485.782)"></g><text x="905.58px" y="485.782px"
                class="text-bold">55°</text>
            <g transform="matrix(24,0,0,24,1055.92,405.565)"></g><text x="1020.35px" y="405.565px"
                class="text-bold">30°</text>
            <g transform="matrix(24,0,0,24,1130.57,210.98)"></g><text x="994.301px" y="210.98px" class="text-bold">LEFT
                / RIGHT</text>
            <g transform="matrix(20,0,0,20,996.137,507.086)"></g><text x="959.877px" y="507.086px"
                class="text-light">max</text>
            <g transform="matrix(20,0,0,20,1165.16,443.474)"></g><text x="1062.62px" y="443.474px"
                class="text-light">comfortable</text>
            <g id="heads-top">
                <g id="head-top3" opacity="0.3">
                    <path
                        d="M1133.34,703.463c-0.778,-0.682 -15.63,-13.729 -20.481,-19.494c-8.731,-10.373 7.844,-23.434 15.976,-29.707c8.132,-6.273 24.998,-19.008 32.815,-7.929c4.344,6.156 13.192,23.834 13.655,24.759l0.038,0.023l-41.991,32.391l-0.012,-0.043Z"
                        style="fill:#3f3f3f;stroke:#000;stroke-width:1px;" />
                    <path
                        d="M1183.13,681.7c-0.652,-0.498 -0.777,-1.431 -0.28,-2.082l1.253,-1.643c0.943,-1.235 3.617,-1.101 7.444,1.82c2.225,1.698 4.647,5.272 3.617,6.623c-1.254,1.642 -3.094,0.494 -3.745,-0.003l-8.289,-4.715Z"
                        style="fill:#fff;stroke:#000;stroke-width:1px;" />
                    <path
                        d="M1141.59,713.74c-0.316,-0.757 -1.187,-1.115 -1.943,-0.799l-1.907,0.795c-1.434,0.598 -1.984,3.218 -0.13,7.662c1.078,2.583 3.92,5.833 5.487,5.179c1.907,-0.795 1.264,-2.866 0.949,-3.623l-2.456,-9.214Z"
                        style="fill:#fff;stroke:#000;stroke-width:1px;" />
                    <path
                        d="M1185.98,728.336c-16.253,12.538 -36.506,6.862 -46.971,-10.797c-13.458,-22.71 -10.449,-38.854 1.539,-48.101c11.987,-9.247 28.366,-8.059 46.915,10.725c14.423,14.606 14.771,35.636 -1.483,48.173Z"
                        style="fill:#fff;stroke:#000;stroke-width:1px;" />
                </g>
                <g id="head-top2" opacity="0.3">
                    <path
                        d="M1134.27,696.033c-0.601,-0.842 -12.077,-16.94 -15.482,-23.661c-6.127,-12.095 12.995,-21.02 22.346,-25.267c9.351,-4.248 28.681,-12.789 33.758,-0.217c2.821,6.987 7.394,26.219 7.632,27.226l0.032,0.031l-48.284,21.932l-0.002,-0.044Z"
                        style="fill:#3f3f3f;stroke:#000;stroke-width:1px;" />
                    <path
                        d="M1187.72,686.23c-0.521,-0.634 -0.43,-1.571 0.204,-2.091l1.595,-1.312c1.201,-0.987 3.773,-0.246 6.831,3.473c1.777,2.162 3.319,6.195 2.006,7.274c-1.595,1.312 -3.124,-0.226 -3.645,-0.859l-6.991,-6.485Z"
                        style="fill:#fff;stroke:#000;stroke-width:1px;" />
                    <path
                        d="M1139.95,707.924c-0.134,-0.809 -0.9,-1.356 -1.708,-1.222l-2.038,0.338c-1.533,0.255 -2.667,2.679 -1.879,7.43c0.459,2.76 2.482,6.575 4.158,6.296c2.038,-0.338 1.886,-2.501 1.751,-3.31l-0.284,-9.532Z"
                        style="fill:#fff;stroke:#000;stroke-width:1px;" />
                    <path
                        d="M1179.83,732.282c-18.689,8.489 -37.108,-1.667 -43.258,-21.251c-7.91,-25.186 -1.289,-40.214 12.495,-46.475c13.784,-6.261 29.458,-1.36 43.221,21.168c10.702,17.516 6.232,38.069 -12.458,46.558Z"
                        style="fill:#fff;stroke:#000;stroke-width:1px;" />
                </g>
                <g id="head-top1" opacity="0.3">
                    <path
                        d="M1138.11,688.373c-0.413,-0.949 -8.281,-19.084 -10.211,-26.367c-3.472,-13.107 17.091,-17.851 27.122,-20.056c10.03,-2.205 30.717,-6.53 33.062,6.824c1.303,7.421 1.767,27.184 1.79,28.219l0.025,0.037l-51.795,11.387l0.007,-0.044Z"
                        style="fill:#3f3f3f;stroke:#000;stroke-width:1px;" />
                    <path
                        d="M1192.43,689.924c-0.377,-0.728 -0.092,-1.625 0.636,-2.002l1.834,-0.951c1.379,-0.715 3.74,0.546 5.956,4.821c1.288,2.485 1.955,6.75 0.447,7.532c-1.834,0.951 -3.009,-0.872 -3.386,-1.6l-5.487,-7.8Z"
                        style="fill:#fff;stroke:#000;stroke-width:1px;" />
                    <path
                        d="M1141.19,701.188c0.038,-0.819 -0.597,-1.514 -1.416,-1.551l-2.064,-0.094c-1.552,-0.07 -3.167,2.065 -3.385,6.875c-0.127,2.796 1.057,6.948 2.754,7.025c2.063,0.093 2.365,-2.054 2.403,-2.873l1.708,-9.382Z"
                        style="fill:#fff;stroke:#000;stroke-width:1px;" />
                    <path
                        d="M1175.11,733.321c-20.048,4.408 -35.946,-9.364 -37.879,-29.8c-2.487,-26.281 7.12,-39.599 21.907,-42.85c14.786,-3.251 29.094,4.809 37.859,29.71c6.816,19.363 -1.839,38.532 -21.887,42.94Z"
                        style="fill:#fff;stroke:#000;stroke-width:1px;" />
                </g>
                <g id="head-top0">
                    <path
                        d="M1141.32,683.296c-0.2,-1.015 -3.99,-20.417 -4.311,-27.944c-0.577,-13.547 20.525,-13.765 30.795,-13.765c10.27,0 31.403,0.218 30.825,13.765c-0.32,7.527 -4.111,26.929 -4.31,27.944l0.016,0.042l-53.032,-0l0.017,-0.042Z"
                        style="fill:#3f3f3f;stroke:#000;stroke-width:1px;" />
                    <path
                        d="M1194.04,696.475c-0.212,-0.792 0.258,-1.608 1.05,-1.82l1.996,-0.535c1.501,-0.402 3.536,1.337 4.782,5.988c0.725,2.703 0.46,7.013 -1.181,7.452c-1.995,0.535 -2.751,-1.497 -2.964,-2.289l-3.683,-8.796Z"
                        style="fill:#fff;stroke:#000;stroke-width:1px;" />
                    <path
                        d="M1141.58,696.475c0.213,-0.792 -0.258,-1.608 -1.05,-1.82l-1.996,-0.535c-1.501,-0.402 -3.536,1.337 -4.782,5.988c-0.724,2.703 -0.46,7.013 1.181,7.452c1.996,0.535 2.752,-1.497 2.964,-2.289l3.683,-8.796Z"
                        style="fill:#fff;stroke:#000;stroke-width:1px;" />
                    <path
                        d="M1167.81,735.141c-20.527,0 -33.096,-16.864 -30.597,-37.238c3.214,-26.202 15.458,-37.147 30.597,-37.147c15.139,0 27.383,10.945 30.597,37.147c2.5,20.374 -10.07,37.238 -30.597,37.238Z"
                        style="fill:#fff;stroke:#000;stroke-width:1px;" />
                </g>
            </g>
        </g>
        <g id="side-to-side">
            <path
                d="M1500.23,391.65c-27.242,0 -54.366,3.571 -80.68,10.622l62.346,232.676c5.979,-1.602 12.143,-2.414 18.334,-2.414l-0,-240.884Z"
                class="lightblue solid" />
            <g transform="matrix(24,0,0,24,1430.38,384.044)"></g><text x="1399.78px" y="384.044px"
                class="text-bold">15°</text>
            <g transform="matrix(24,0,0,24,1528.81,210.98)"></g><text x="1382.49px" y="210.98px"
                class="text-bold">SIDE-TO-SIDE</text>
            <g transform="matrix(20,0,0,20,1465.96,420.36)"></g><text x="1429.7px" y="420.36px"
                class="text-light">max</text>
            <g id="heads-back">
                <g id="head-back3" opacity="0.31">
                    <path
                        d="M1518.22,653.879c-1.516,-3.918 -5.928,-5.867 -9.846,-4.351l-49.009,18.97c-3.918,1.517 -5.868,5.929 -4.351,9.847l6.742,13.714c1.516,3.918 5.803,5.916 9.566,4.459l47.076,-18.222c3.763,-1.456 5.587,-5.82 4.071,-9.738l-4.249,-14.679Z"
                        style="fill:#3f3f3f;stroke:#000;stroke-width:1px;" />
                    <path
                        d="M1488.57,726c-1.806,-4.485 -3.332,-7.713 -4.53,-9.407c-1.436,-2.03 -2.537,-2.829 -3.546,-4.256c-1.736,2.233 -4.634,2.333 -9.627,-3.293c-1.578,-1.778 -4.957,-5.485 -6.635,-7.591c-1.415,-1.778 -1.463,-3.752 0.168,-5.27c1.538,-1.432 3.009,-0.852 4.173,-0.973c-2.327,-3.026 -4.556,-7.317 -7.797,-15.595c-6.355,-16.23 2.283,-30.047 17.202,-35.822c14.919,-5.775 30.608,-1.374 36.837,14.905c3.177,8.303 4.417,12.976 4.735,16.78c0.942,-0.694 1.639,-2.114 3.74,-2.09c2.228,0.024 3.522,1.516 3.672,3.783c0.178,2.688 0.175,7.703 0.205,10.08c0.096,7.522 -2.113,9.399 -4.9,8.916c0.393,3.182 -0.863,5.011 2.841,14.977"
                        style="fill:#fff;stroke:#000;stroke-width:1px;" />
                    <path
                        d="M1492.07,680.216c18.445,-7.14 26.326,-11.715 26.326,-11.715c-0,0 -0.441,-3.15 -1.501,-6.359c-1.268,-3.837 -2.695,-5.668 -2.695,-5.668c-0,0 -12.629,3.369 -27.75,9.222c-15.121,5.852 -26.727,11.865 -26.727,11.865c0,-0 0.177,2.314 1.823,6.005c1.377,3.087 3.172,5.712 3.172,5.712c0,0 8.908,-1.923 27.352,-9.062Z"
                        style="fill:#050505;stroke:#000;stroke-width:1px;" />
                    <path d="M1514.2,656.474l4.365,-1.689l3.394,12.381l-3.563,1.335l-4.196,-12.027Z"
                        style="fill:#050505;stroke:#000;stroke-width:1px;" />
                    <path d="M1459.73,677.561l-4.365,1.689l5.827,11.44l3.533,-1.412l-4.995,-11.717Z"
                        style="fill:#050505;stroke:#000;stroke-width:1px;" />
                </g>
                <g id="head-back2" opacity="0.45">
                    <path
                        d="M1525.15,656.825c-0.952,-4.092 -5.046,-6.642 -9.138,-5.691l-51.187,11.901c-4.092,0.951 -6.642,5.046 -5.691,9.138l4.75,14.525c0.951,4.092 4.915,6.672 8.845,5.758l49.168,-11.431c3.931,-0.914 6.349,-4.978 5.398,-9.07l-2.145,-15.13Z"
                        style="fill:#3f3f3f;stroke:#000;stroke-width:1px;" />
                    <path
                        d="M1486.99,725.391c-2.547,-10.322 -5.926,-13.134 -7.391,-15.985c-2.032,1.968 -4.915,1.659 -9.069,-4.612c-1.313,-1.982 -4.138,-6.126 -5.503,-8.448c-1.152,-1.958 -0.922,-3.92 0.906,-5.194c1.723,-1.202 3.099,-0.421 4.268,-0.377c-1.879,-3.323 -3.483,-7.884 -5.53,-16.535c-4.013,-16.962 6.48,-29.429 22.062,-33.052c15.582,-3.623 30.498,2.937 34.379,19.93c1.979,8.667 2.551,13.468 2.331,17.278c1.031,-0.555 1.92,-1.862 3.997,-1.544c2.203,0.337 3.274,1.996 3.105,4.262c-0.201,2.686 -0.909,7.651 -1.212,10.008c-0.962,7.461 -3.413,9.01 -6.104,8.14c-0.058,3.205 -1.558,4.84 0.71,15.227"
                        style="fill:#fff;stroke:#000;stroke-width:1px;" />
                    <path
                        d="M1495.57,679.229c19.264,-4.479 27.709,-7.902 27.709,-7.902c0,0 0.007,-3.181 -0.592,-6.507c-0.717,-3.977 -1.873,-5.989 -1.873,-5.989c-0,-0 -12.977,1.561 -28.77,5.233c-15.793,3.672 -28.127,7.995 -28.127,7.995c-0,-0 -0.15,2.316 0.961,6.202c0.929,3.249 2.339,6.101 2.339,6.101c-0,-0 9.089,-0.654 28.353,-5.133Z"
                        style="fill:#050505;stroke:#000;stroke-width:1px;" />
                    <path d="M1520.82,658.831l4.559,-1.06l1.622,12.735l-3.716,0.821l-2.465,-12.496Z"
                        style="fill:#050505;stroke:#000;stroke-width:1px;" />
                    <path d="M1463.92,672.059l-4.56,1.06l4.163,12.144l3.697,-0.901l-3.3,-12.303Z"
                        style="fill:#050505;stroke:#000;stroke-width:1px;" />
                </g>
                <g id="head-back1" opacity="0.6">
                    <path
                        d="M1531.65,660.657c-0.441,-4.177 -4.192,-7.211 -8.369,-6.769l-52.262,5.523c-4.178,0.441 -7.211,4.191 -6.77,8.369l2.93,14.999c0.441,4.178 4.058,7.225 8.071,6.801l50.2,-5.305c4.013,-0.424 6.912,-4.16 6.471,-8.338l-0.271,-15.28Z"
                        style="fill:#3f3f3f;stroke:#000;stroke-width:1px;" />
                    <path
                        d="M1484.97,723.357c-1.26,-10.557 -3.891,-13.103 -4.995,-16.113c-2.258,1.703 -5.081,1.043 -8.433,-5.691c-1.06,-2.128 -3.354,-6.588 -4.424,-9.06c-0.903,-2.085 -0.433,-4.003 1.537,-5.044c1.858,-0.981 3.127,-0.036 4.282,0.151c-1.456,-3.529 -2.488,-8.252 -3.456,-17.089c-1.9,-17.327 10.045,-28.411 25.954,-30.092c15.909,-1.681 29.906,6.661 31.67,24.002c0.9,8.844 0.878,13.679 0.192,17.434c1.091,-0.424 2.134,-1.613 4.156,-1.042c2.145,0.606 3.004,2.383 2.558,4.611c-0.53,2.641 -1.842,7.482 -2.433,9.784c-1.87,7.286 -4.493,8.522 -7.057,7.329c-0.451,3.173 -2.141,4.611 -1.166,15.198"
                        style="fill:#fff;stroke:#000;stroke-width:1px;" />
                    <path
                        d="M1499.54,679.259c19.669,-2.079 28.47,-4.439 28.47,-4.439c0,0 0.398,-3.156 0.212,-6.53c-0.223,-4.035 -1.123,-6.175 -1.123,-6.175c-0,0 -13.071,-0.044 -29.195,1.66c-16.125,1.704 -28.897,4.479 -28.897,4.479c0,0 -0.433,2.28 0.193,6.273c0.523,3.339 1.571,6.342 1.571,6.342c0,0 9.101,0.468 28.769,-1.61Z"
                        style="fill:#050505;stroke:#000;stroke-width:1px;" />
                    <path d="M1527.1,662.115l4.654,-0.492l0.045,12.838l-3.788,0.359l-0.911,-12.705Z"
                        style="fill:#050505;stroke:#000;stroke-width:1px;" />
                    <path d="M1469.01,668.254l-4.654,0.492l2.639,12.564l3.779,-0.441l-1.764,-12.615Z"
                        style="fill:#050505;stroke:#000;stroke-width:1px;" />
                </g>
                <g id="head-back0">
                    <path
                        d="M1537.43,663.806c0,-4.201 -3.411,-7.612 -7.612,-7.612l-52.552,0c-4.201,0 -7.612,3.411 -7.612,7.612l1.337,15.223c-0,4.201 3.276,7.612 7.311,7.612l50.48,-0c4.035,-0 7.311,-3.411 7.311,-7.612l1.337,-15.223Z"
                        style="fill:#3f3f3f;stroke:#000;stroke-width:1px;" />
                    <path
                        d="M1480.49,729.209c3.508,-1.617 3.513,-7.742 3.417,-12.513c-0.143,-7.117 -1.975,-8.883 -2.757,-11.992c-2.424,1.456 -5.163,0.503 -7.788,-6.546c-0.83,-2.228 -2.643,-6.904 -3.447,-9.474c-0.679,-2.169 -0.011,-4.027 2.058,-4.855c1.951,-0.78 3.114,0.292 4.243,0.599c-1.077,-3.662 -1.607,-8.467 -1.642,-17.357c-0.068,-17.43 12.976,-27.197 28.973,-27.197c15.998,-0 29.041,9.767 28.973,27.197c-0.035,8.89 -0.564,13.695 -1.642,17.357c1.13,-0.307 2.292,-1.379 4.243,-0.599c2.069,0.828 2.737,2.686 2.059,4.855c-0.804,2.57 -2.618,7.246 -3.447,9.474c-2.626,7.049 -5.364,8.002 -7.789,6.546c-0.782,3.109 -2.613,4.875 -2.757,11.992c-0.096,4.771 -0.091,10.896 3.417,12.513c1.225,4.157 -10.9,7.34 -23.057,7.206c-12.636,-0.138 -25.308,-3.742 -23.057,-7.206Z"
                        style="fill:#fff;stroke:#000;stroke-width:1px;" />
                    <path
                        d="M1503.55,678.929c19.778,0 28.779,-1.421 28.779,-1.421c0,-0 0.727,-3.097 0.896,-6.473c0.203,-4.036 -0.468,-6.258 -0.468,-6.258c0,0 -12.993,-1.418 -29.207,-1.418c-16.214,0 -29.207,1.418 -29.207,1.418c-0,0 -0.671,2.222 -0.468,6.258c0.169,3.376 0.896,6.473 0.896,6.473c0,-0 9.001,1.421 28.779,1.421Z"
                        style="fill:#050505;stroke:#000;stroke-width:1px;" />
                    <path d="M1532.75,664.777l4.681,0l-1.304,12.772l-3.805,-0.041l0.428,-12.731Z"
                        style="fill:#050505;stroke:#000;stroke-width:1px;" />
                    <path d="M1474.34,664.777l-4.681,0l1.304,12.772l3.805,-0.041l-0.428,-12.731Z"
                        style="fill:#050505;stroke:#000;stroke-width:1px;" />
                </g>
            </g>
        </g>
    </g>
</svg>